<svg xmlns="http://www.w3.org/2000/svg" viewBox="0 0 54 128" fill="#8F5652">
  <!-- T -->
  <path d="M37.38,11.59v1.44c0,.31-.25.56-.56.56h-8.45v28.48c0,.31-.25.56-.56.56h-2.03c-.3,0-.55-.25-.55-.56V13.59h-8.41c-.3,0-.55-.25-.55-.56V11.59c0-.31.25-.56.55-.56h19.99c.31,0,.56.25.56.56Z"/>
  <!-- U -->
  <path d="M18.18,34.51c.31,0,.56.25.56.56v18.2c0,3.31.73,5.74,2.18,7.29,1.45,1.55,3.43,2.33,5.95,2.33s4.49-.78,5.91-2.33c1.42-1.55,2.13-3.98,2.13-7.29V35.07c0-.31.25-.57.57-.57h1.94c.31,0,.57.25.57.57v18.2c0,4.19-1.01,7.32-3.03,9.4-2.02,2.08-4.73,3.12-8.13,3.12s-6.11-1.04-8.13-3.12c-2.02-2.08-3.03-5.21-3.03-9.4V35.07c0-.31.25-.57.57-.57h1.95Z"/>
  <!-- Z (with arrow) -->
  <path d="M42.58,75.15v-2.14c0-.29-.23-.52-.52-.52H11.51c-.29,0-.52.23-.52.52v2.14c0,.29.23.52.52.52h13.34L11.44,88.14c-.29.27-.45.64-.45,1.03v2.08c0,.46.55.69.88.38l14.99-14.1,14.85,14.09c.33.31.88.08.88-.38v-2.07c0-.39-.16-.77-.45-1.03L28.73,75.67h13.34c.29,0,.52-.23.52-.52Z"/>
  <!-- I -->
  <path d="M28.42,86.33v30.48c0,.31-.25.55-.55.55h-2.07c-.31,0-.55-.25-.55-.55V86.33c0-.31.25-.55.55-.55h2.07c.31,0,.55.25.55.55Z"/>
  <!-- R symbol -->
  <path d="M36.63,114.75c0,1.47-1.15,2.62-2.66,2.62-1.49,0-2.67-1.15-2.67-2.62,0-1.44,1.19-2.59,2.67-2.59,1.5,0,2.66,1.15,2.66,2.59Zm-4.66,0c0,1.15.85,2.07,2.02,2.07,1.14,0,1.98-.92,1.98-2.05,0-1.15-.84-2.09-1.99-2.09-1.15,0-2.01.93-2.01,2.07Zm1.6,1.36h-.6v-2.59c.24-.05.57-.08,1-.08.49,0,.71.08.9.19.14.11.25.32.25.57,0,.28-.22.51-.54.6v.03c.25.09.4.28.47.63.08.4.13.55.19.65h-.65c-.08-.1-.13-.33-.21-.63-.05-.28-.21-.41-.54-.41h-.28v1.04Zm.02-1.47h.28c.33,0,.6-.11.6-.38,0-.24-.17-.4-.55-.4-.16,0-.27.02-.33.03v.75Z"/>
</svg>